NotoSansHanifiRohingya-Bold.ufo
<glyph name="guillemotleft" format="2">
	<unicode hex="00AB"/>
	<advance width="615"/>
	<outline>
		<contour>
			<point x="221" y="46" type="line"/>
			<point x="328" y="104" type="line"/>
			<point x="192" y="274" type="line"/>
			<point x="328" y="444" type="line"/>
			<point x="221" y="502" type="line"/>
			<point x="40" y="280" type="line"/>
			<point x="40" y="267" type="line"/>
		</contour>
		<contour>
			<point x="469" y="46" type="line"/>
			<point x="576" y="104" type="line"/>
			<point x="440" y="274" type="line"/>
			<point x="576" y="444" type="line"/>
			<point x="469" y="502" type="line"/>
			<point x="288" y="280" type="line"/>
			<point x="288" y="267" type="line"/>
		</contour>
	</outline>
</glyph>
<glyph name="guillemotright" format="2">
	<unicode hex="00BB"/>
	<advance width="615"/>
	<outline>
		<contour>
			<point x="146" y="46" type="line"/>
			<point x="327" y="267" type="line"/>
			<point x="327" y="280" type="line"/>
			<point x="146" y="502" type="line"/>
			<point x="39" y="444" type="line"/>
			<point x="175" y="274" type="line"/>
			<point x="39" y="104" type="line"/>
		</contour>
		<contour>
			<point x="394" y="46" type="line"/>
			<point x="575" y="267" type="line"/>
			<point x="575" y="280" type="line"/>
			<point x="394" y="502" type="line"/>
			<point x="287" y="444" type="line"/>
			<point x="423" y="274" type="line"/>
			<point x="287" y="104" type="line"/>
		</contour>
	</outline>
</glyph>
<glyph name="comma-ar" format="2">
	<unicode hex="060C"/>
	<advance width="323"/>
	<outline>
		<contour>
			<point x="72" y="0" type="line"/>
			<point x="209" y="0" type="line"/>
			<point x="220" y="76"/>
			<point x="236" y="156"/>
			<point x="258" y="245" type="curve"/>
			<point x="151" y="245" type="line"/>
			<point x="112" y="159"/>
			<point x="83" y="80"/>
			<point x="65" y="11" type="curve"/>
		</contour>
	</outline>
</glyph>
<glyph name="question-ar" format="2">
	<unicode hex="061F"/>
	<advance width="530"/>
	<outline>
		<contour>
			<point x="239" y="237" type="line"/>
			<point x="368" y="237" type="line"/>
			<point x="368" y="273" type="line" smooth="yes"/>
			<point x="368" y="335"/>
			<point x="344" y="378"/>
			<point x="280" y="428" type="curve" smooth="yes"/>
			<point x="221" y="474"/>
			<point x="206" y="497"/>
			<point x="206" y="540" type="curve" smooth="yes"/>
			<point x="206" y="580"/>
			<point x="235" y="604"/>
			<point x="282" y="604" type="curve" smooth="yes"/>
			<point x="320" y="604"/>
			<point x="367" y="589"/>
			<point x="435" y="555" type="curve"/>
			<point x="485" y="663" type="line"/>
			<point x="419" y="701"/>
			<point x="342" y="724"/>
			<point x="280" y="724" type="curve" smooth="yes"/>
			<point x="146" y="724"/>
			<point x="65" y="657"/>
			<point x="65" y="547" type="curve" smooth="yes"/>
			<point x="65" y="474"/>
			<point x="91" y="430"/>
			<point x="173" y="366" type="curve" smooth="yes"/>
			<point x="228" y="323"/>
			<point x="239" y="306"/>
			<point x="239" y="266" type="curve" smooth="yes"/>
		</contour>
		<contour>
			<point x="298" y="-13" type="curve" smooth="yes"/>
			<point x="352" y="-13"/>
			<point x="383" y="18"/>
			<point x="383" y="70" type="curve" smooth="yes"/>
			<point x="383" y="123"/>
			<point x="353" y="153"/>
			<point x="298" y="153" type="curve" smooth="yes"/>
			<point x="244" y="153"/>
			<point x="213" y="122"/>
			<point x="213" y="70" type="curve" smooth="yes"/>
			<point x="213" y="17"/>
			<point x="243" y="-13"/>
		</contour>
	</outline>
</glyph>
<glyph name="kashida-ar" format="2">
	<unicode hex="0640"/>
	<advance width="250"/>
	<outline>
		<contour>
			<point x="-55" y="25" type="line"/>
			<point x="-33" y="12"/>
			<point x="18" y="0"/>
			<point x="50" y="0" type="curve" smooth="yes"/>
			<point x="314" y="0" type="line"/>
			<point x="314" y="120" type="line"/>
			<point x="-55" y="120" type="line"/>
		</contour>
	</outline>
</glyph>
<glyph name="zero-ar" format="2">
	<unicode hex="0660"/>
	<advance width="308"/>
	<outline>
		<contour>
			<point x="154" y="233" type="curve" smooth="yes"/>
			<point x="209" y="233"/>
			<point x="244" y="269"/>
			<point x="244" y="329" type="curve" smooth="yes"/>
			<point x="244" y="389"/>
			<point x="209" y="425"/>
			<point x="154" y="425" type="curve" smooth="yes"/>
			<point x="97" y="425"/>
			<point x="64" y="390"/>
			<point x="64" y="329" type="curve" smooth="yes"/>
			<point x="64" y="268"/>
			<point x="97" y="233"/>
		</contour>
	</outline>
</glyph>
<glyph name="fullstop-fa.urdu" format="2">
	<unicode hex="06D4"/>
	<advance width="300"/>
	<outline>
		<contour>
			<point x="150" y="-10" type="curve" smooth="yes"/>
			<point x="204" y="-10"/>
			<point x="235" y="21"/>
			<point x="235" y="73" type="curve" smooth="yes"/>
			<point x="235" y="126"/>
			<point x="205" y="156"/>
			<point x="150" y="156" type="curve" smooth="yes"/>
			<point x="96" y="156"/>
			<point x="65" y="125"/>
			<point x="65" y="73" type="curve" smooth="yes"/>
			<point x="65" y="20"/>
			<point x="95" y="-10"/>
		</contour>
	</outline>
</glyph>
<glyph name="ZWJ" format="2">
	<unicode hex="200D"/>
	<outline>
		<contour>
			<point x="-20" y="-217" type="line"/>
			<point x="19" y="-217" type="line"/>
			<point x="19" y="500" type="line"/>
			<point x="70" y="450" type="line"/>
			<point x="98" y="478" type="line"/>
			<point x="28" y="547" type="line"/>
			<point x="98" y="617" type="line"/>
			<point x="69" y="646" type="line"/>
			<point x="0" y="576" type="line"/>
			<point x="-69" y="646" type="line"/>
			<point x="-98" y="617" type="line"/>
			<point x="-29" y="547" type="line"/>
			<point x="-98" y="478" type="line"/>
			<point x="-70" y="450" type="line"/>
			<point x="-20" y="501" type="line"/>
		</contour>
	</outline>
</glyph>
<glyph name="ma-rohg" format="2">
	<unicode hex="10D14"/>
	<advance width="774"/>
	<outline>
		<contour>
			<point x="290" y="0" type="curve" smooth="yes"/>
			<point x="366" y="0"/>
			<point x="411" y="24"/>
			<point x="461" y="87" type="curve"/>
			<point x="489" y="179" type="line" smooth="yes"/>
			<point x="509" y="245"/>
			<point x="526" y="268"/>
			<point x="557" y="268" type="curve" smooth="yes"/>
			<point x="591" y="268"/>
			<point x="611" y="240"/>
			<point x="611" y="195" type="curve" smooth="yes"/>
			<point x="611" y="141"/>
			<point x="592" y="116"/>
			<point x="550" y="116" type="curve" smooth="yes"/>
			<point x="514" y="116"/>
			<point x="481" y="135"/>
			<point x="459" y="169" type="curve"/>
			<point x="401" y="66" type="line"/>
			<point x="457" y="18"/>
			<point x="502" y="0"/>
			<point x="565" y="0" type="curve" smooth="yes"/>
			<point x="681" y="0"/>
			<point x="744" y="68"/>
			<point x="744" y="191" type="curve" smooth="yes"/>
			<point x="744" y="309"/>
			<point x="669" y="388"/>
			<point x="555" y="388" type="curve" smooth="yes"/>
			<point x="463" y="388"/>
			<point x="406" y="338"/>
			<point x="372" y="227" type="curve" smooth="yes"/>
			<point x="368" y="214" type="line" smooth="yes"/>
			<point x="346" y="141"/>
			<point x="337" y="120"/>
			<point x="306" y="120" type="curve" smooth="yes"/>
			<point x="279" y="120"/>
			<point x="266" y="137"/>
			<point x="266" y="175" type="curve" smooth="yes"/>
			<point x="266" y="450" type="line"/>
			<point x="251" y="460" type="line"/>
			<point x="251" y="567" type="line" smooth="yes"/>
			<point x="251" y="596"/>
			<point x="268" y="616"/>
			<point x="294" y="616" type="curve" smooth="yes"/>
			<point x="318" y="616"/>
			<point x="333" y="599"/>
			<point x="333" y="574" type="curve" smooth="yes"/>
			<point x="333" y="544"/>
			<point x="313" y="526"/>
			<point x="281" y="526" type="curve" smooth="yes"/>
			<point x="201" y="526" type="line"/>
			<point x="191" y="541" type="line"/>
			<point x="10" y="541" type="line"/>
			<point x="10" y="421" type="line"/>
			<point x="283" y="421" type="line" smooth="yes"/>
			<point x="388" y="421"/>
			<point x="460" y="482"/>
			<point x="460" y="573" type="curve" smooth="yes"/>
			<point x="460" y="662"/>
			<point x="391" y="724"/>
			<point x="294" y="724" type="curve" smooth="yes"/>
			<point x="191" y="724"/>
			<point x="117" y="653"/>
			<point x="117" y="555" type="curve" smooth="yes"/>
			<point x="117" y="174" type="line" smooth="yes"/>
			<point x="117" y="56"/>
			<point x="173" y="0"/>
		</contour>
	</outline>
	<anchor name="top" x="472" y="714"/>
</glyph>
<glyph name="sakin-rohg" format="2">
	<unicode hex="10D22"/>
	<advance width="424"/>
	<outline>
		<contour>
			<point x="10" y="25" type="line"/>
			<point x="32" y="12"/>
			<point x="84" y="0"/>
			<point x="116" y="0" type="curve" smooth="yes"/>
			<point x="125" y="0" type="line" smooth="yes"/>
			<point x="262" y="0"/>
			<point x="344" y="103"/>
			<point x="344" y="275" type="curve" smooth="yes"/>
			<point x="344" y="343" type="line"/>
			<point x="195" y="343" type="line"/>
			<point x="195" y="280" type="line" smooth="yes"/>
			<point x="195" y="173"/>
			<point x="159" y="120"/>
			<point x="86" y="120" type="curve" smooth="yes"/>
			<point x="10" y="120" type="line"/>
		</contour>
	</outline>
	<anchor name="top" x="269" y="714"/>
</glyph>
<glyph name="harbahay-rohg" format="2">
	<unicode hex="10D24"/>
	<outline>
		<contour>
			<point x="8" y="892" type="curve" smooth="yes"/>
			<point x="78" y="892"/>
			<point x="126" y="938"/>
			<point x="126" y="1005" type="curve" smooth="yes"/>
			<point x="126" y="1089" type="line"/>
			<point x="35" y="1089" type="line"/>
			<point x="35" y="1018" type="line" smooth="yes"/>
			<point x="35" y="989"/>
			<point x="20" y="973"/>
			<point x="-7" y="973" type="curve" smooth="yes"/>
			<point x="-31" y="973"/>
			<point x="-46" y="982"/>
			<point x="-58" y="1004" type="curve"/>
			<point x="-81" y="928" type="line"/>
			<point x="-64" y="906"/>
			<point x="-29" y="892"/>
		</contour>
		<contour>
			<point x="-126" y="802" type="line"/>
			<point x="-35" y="802" type="line"/>
			<point x="-35" y="1089" type="line"/>
			<point x="-126" y="1089" type="line"/>
		</contour>
	</outline>
	<anchor name="_top" x="0" y="714"/>
	<anchor name="top" x="0" y="1089"/>
</glyph>
<glyph name="tahala-rohg" format="2">
	<unicode hex="10D25"/>
	<outline>
		<contour>
			<point x="-45" y="791" type="line"/>
			<point x="-5" y="807" type="line" smooth="yes"/>
			<point x="42" y="826"/>
			<point x="69" y="857"/>
			<point x="69" y="893" type="curve" smooth="yes"/>
			<point x="69" y="911"/>
			<point x="63" y="931"/>
			<point x="51" y="950" type="curve" smooth="yes"/>
			<point x="35" y="975" type="line" smooth="yes"/>
			<point x="31" y="981"/>
			<point x="29" y="987"/>
			<point x="29" y="992" type="curve" smooth="yes"/>
			<point x="29" y="1002"/>
			<point x="34" y="1007"/>
			<point x="51" y="1013" type="curve" smooth="yes"/>
			<point x="80" y="1024" type="line"/>
			<point x="46" y="1102" type="line"/>
			<point x="6" y="1087" type="line" smooth="yes"/>
			<point x="-42" y="1068"/>
			<point x="-68" y="1038"/>
			<point x="-68" y="1000" type="curve" smooth="yes"/>
			<point x="-68" y="981"/>
			<point x="-62" y="962"/>
			<point x="-50" y="944" type="curve" smooth="yes"/>
			<point x="-34" y="919" type="line" smooth="yes"/>
			<point x="-30" y="913"/>
			<point x="-28" y="907"/>
			<point x="-28" y="902" type="curve" smooth="yes"/>
			<point x="-28" y="893"/>
			<point x="-33" y="888"/>
			<point x="-50" y="881" type="curve" smooth="yes"/>
			<point x="-79" y="869" type="line"/>
		</contour>
	</outline>
	<anchor name="_top" x="0" y="714"/>
	<anchor name="top" x="0" y="1079"/>
</glyph>
<glyph name="tana-rohg" format="2">
	<unicode hex="10D26"/>
	<outline>
		<contour>
			<point x="-142" y="852" type="line"/>
			<point x="-114" y="897"/>
			<point x="-97" y="910"/>
			<point x="-64" y="910" type="curve" smooth="yes"/>
			<point x="-48" y="910"/>
			<point x="-34" y="907"/>
			<point x="-4" y="898" type="curve" smooth="yes"/>
			<point x="27" y="888"/>
			<point x="41" y="886"/>
			<point x="65" y="886" type="curve" smooth="yes"/>
			<point x="132" y="886"/>
			<point x="187" y="934"/>
			<point x="218" y="1019" type="curve"/>
			<point x="136" y="1051" type="line"/>
			<point x="111" y="996"/>
			<point x="94" y="979"/>
			<point x="63" y="979" type="curve" smooth="yes"/>
			<point x="43" y="979"/>
			<point x="31" y="981"/>
			<point x="-1" y="991" type="curve" smooth="yes"/>
			<point x="-32" y="1000"/>
			<point x="-49" y="1003"/>
			<point x="-70" y="1003" type="curve" smooth="yes"/>
			<point x="-131" y="1003"/>
			<point x="-177" y="972"/>
			<point x="-218" y="902" type="curve"/>
		</contour>
	</outline>
	<anchor name="_top" x="0" y="714"/>
	<anchor name="top" x="0" y="1003"/>
</glyph>
<glyph name="tassi-rohg" format="2">
	<unicode hex="10D27"/>
	<outline>
		<contour>
			<point x="-87" y="824" type="curve" smooth="yes"/>
			<point x="-37" y="824"/>
			<point x="-3" y="848"/>
			<point x="20" y="905" type="curve"/>
			<point x="-16" y="905" type="line"/>
			<point x="4" y="849"/>
			<point x="38" y="824"/>
			<point x="88" y="824" type="curve" smooth="yes"/>
			<point x="140" y="824"/>
			<point x="196" y="859"/>
			<point x="196" y="933" type="curve" smooth="yes"/>
			<point x="196" y="1049" type="line"/>
			<point x="105" y="1049" type="line"/>
			<point x="105" y="950" type="line" smooth="yes"/>
			<point x="105" y="917"/>
			<point x="94" y="905"/>
			<point x="73" y="905" type="curve" smooth="yes"/>
			<point x="52" y="905"/>
			<point x="41" y="917"/>
			<point x="41" y="950" type="curve" smooth="yes"/>
			<point x="41" y="1009" type="line"/>
			<point x="-40" y="1009" type="line"/>
			<point x="-40" y="950" type="line" smooth="yes"/>
			<point x="-40" y="917"/>
			<point x="-51" y="905"/>
			<point x="-72" y="905" type="curve" smooth="yes"/>
			<point x="-93" y="905"/>
			<point x="-104" y="917"/>
			<point x="-104" y="950" type="curve" smooth="yes"/>
			<point x="-104" y="1049" type="line"/>
			<point x="-195" y="1049" type="line"/>
			<point x="-195" y="933" type="line" smooth="yes"/>
			<point x="-195" y="859"/>
			<point x="-139" y="824"/>
		</contour>
	</outline>
	<anchor name="_top" x="0" y="714"/>
	<anchor name="top" x="0" y="1019"/>
</glyph>
<glyph name="zero-rohg" format="2">
	<unicode hex="10D30"/>
	<advance width="616"/>
	<outline>
		<contour>
			<point x="308" y="-10" type="curve" smooth="yes"/>
			<point x="471" y="-10"/>
			<point x="551" y="111"/>
			<point x="551" y="357" type="curve" smooth="yes"/>
			<point x="551" y="603"/>
			<point x="471" y="724"/>
			<point x="308" y="724" type="curve" smooth="yes"/>
			<point x="145" y="724"/>
			<point x="65" y="603"/>
			<point x="65" y="357" type="curve" smooth="yes"/>
			<point x="65" y="111"/>
			<point x="145" y="-10"/>
		</contour>
		<contour>
			<point x="308" y="112" type="curve" smooth="yes"/>
			<point x="241" y="112"/>
			<point x="214" y="183"/>
			<point x="214" y="357" type="curve" smooth="yes"/>
			<point x="214" y="531"/>
			<point x="241" y="602"/>
			<point x="308" y="602" type="curve" smooth="yes"/>
			<point x="375" y="602"/>
			<point x="402" y="531"/>
			<point x="402" y="357" type="curve" smooth="yes"/>
			<point x="402" y="183"/>
			<point x="375" y="112"/>
		</contour>
	</outline>
</glyph>
<glyph name="two-rohg" format="2">
	<unicode hex="10D32"/>
	<advance width="574"/>
	<outline>
		<contour>
			<point x="393" y="-14" type="line"/>
			<point x="471" y="170"/>
			<point x="509" y="314"/>
			<point x="509" y="424" type="curve" smooth="yes"/>
			<point x="509" y="619"/>
			<point x="419" y="724"/>
			<point x="252" y="724" type="curve" smooth="yes"/>
			<point x="119" y="724"/>
			<point x="20" y="638"/>
			<point x="20" y="523" type="curve" smooth="yes"/>
			<point x="20" y="408"/>
			<point x="106" y="334"/>
			<point x="238" y="334" type="curve" smooth="yes"/>
			<point x="290" y="334" type="line"/>
			<point x="290" y="454" type="line"/>
			<point x="249" y="454" type="line" smooth="yes"/>
			<point x="198" y="454"/>
			<point x="164" y="482"/>
			<point x="164" y="526" type="curve" smooth="yes"/>
			<point x="164" y="571"/>
			<point x="198" y="604"/>
			<point x="246" y="604" type="curve" smooth="yes"/>
			<point x="323" y="604"/>
			<point x="360" y="544"/>
			<point x="360" y="420" type="curve" smooth="yes"/>
			<point x="360" y="333"/>
			<point x="329" y="225"/>
			<point x="247" y="32" type="curve"/>
		</contour>
	</outline>
</glyph>
<glyph name="three-rohg" format="2">
	<unicode hex="10D33"/>
	<advance width="661"/>
	<outline>
		<contour>
			<point x="319" y="-10" type="curve" smooth="yes"/>
			<point x="491" y="-10"/>
			<point x="606" y="93"/>
			<point x="606" y="248" type="curve" smooth="yes"/>
			<point x="606" y="382"/>
			<point x="528" y="484"/>
			<point x="352" y="576" type="curve" smooth="yes"/>
			<point x="331" y="587" type="line"/>
			<point x="331" y="594" type="line"/>
			<point x="582" y="594" type="line"/>
			<point x="582" y="714" type="line"/>
			<point x="76" y="714" type="line"/>
			<point x="76" y="615" type="line"/>
			<point x="280" y="490" type="line" smooth="yes"/>
			<point x="409" y="411"/>
			<point x="457" y="347"/>
			<point x="457" y="256" type="curve" smooth="yes"/>
			<point x="457" y="163"/>
			<point x="407" y="112"/>
			<point x="315" y="112" type="curve" smooth="yes"/>
			<point x="240" y="112"/>
			<point x="194" y="145"/>
			<point x="194" y="197" type="curve" smooth="yes"/>
			<point x="194" y="243"/>
			<point x="228" y="267"/>
			<point x="291" y="267" type="curve" smooth="yes"/>
			<point x="317" y="267" type="line"/>
			<point x="317" y="387" type="line"/>
			<point x="291" y="387" type="line" smooth="yes"/>
			<point x="140" y="387"/>
			<point x="45" y="314"/>
			<point x="45" y="198" type="curve" smooth="yes"/>
			<point x="45" y="74"/>
			<point x="156" y="-10"/>
		</contour>
	</outline>
</glyph>
<glyph name="four-rohg" format="2">
	<unicode hex="10D34"/>
	<advance width="778"/>
	<outline>
		<contour>
			<point x="260" y="-10" type="curve" smooth="yes"/>
			<point x="376" y="-10"/>
			<point x="440" y="58"/>
			<point x="440" y="181" type="curve" smooth="yes"/>
			<point x="440" y="224" type="line"/>
			<point x="301" y="224" type="line"/>
			<point x="301" y="181" type="line" smooth="yes"/>
			<point x="301" y="129"/>
			<point x="289" y="108"/>
			<point x="260" y="108" type="curve" smooth="yes"/>
			<point x="226" y="108"/>
			<point x="214" y="149"/>
			<point x="214" y="268" type="curve" smooth="yes"/>
			<point x="214" y="331" type="line" smooth="yes"/>
			<point x="214" y="484"/>
			<point x="246" y="546"/>
			<point x="325" y="546" type="curve" smooth="yes"/>
			<point x="442" y="546"/>
			<point x="529" y="367"/>
			<point x="529" y="127" type="curve" smooth="yes"/>
			<point x="529" y="0" type="line"/>
			<point x="678" y="0" type="line"/>
			<point x="678" y="714" type="line"/>
			<point x="536" y="714" type="line"/>
			<point x="536" y="517" type="line"/>
			<point x="528" y="517" type="line"/>
			<point x="483" y="612"/>
			<point x="401" y="666"/>
			<point x="304" y="666" type="curve" smooth="yes"/>
			<point x="145" y="666"/>
			<point x="65" y="554"/>
			<point x="65" y="333" type="curve" smooth="yes"/>
			<point x="65" y="266" type="line" smooth="yes"/>
			<point x="65" y="79"/>
			<point x="128" y="-10"/>
		</contour>
	</outline>
</glyph>
<glyph name="five-rohg" format="2">
	<unicode hex="10D35"/>
	<advance width="818"/>
	<outline>
		<contour>
			<point x="653" y="0" type="line"/>
			<point x="653" y="120" type="line"/>
			<point x="486" y="120" type="line"/>
			<point x="541" y="53" type="line"/>
			<point x="541" y="113" type="line" smooth="yes"/>
			<point x="541" y="290"/>
			<point x="552" y="314"/>
			<point x="670" y="394" type="curve" smooth="yes"/>
			<point x="698" y="413" type="line" smooth="yes"/>
			<point x="764" y="457"/>
			<point x="793" y="503"/>
			<point x="793" y="562" type="curve" smooth="yes"/>
			<point x="793" y="640"/>
			<point x="728" y="702"/>
			<point x="646" y="702" type="curve" smooth="yes"/>
			<point x="557" y="702"/>
			<point x="490" y="643"/>
			<point x="490" y="564" type="curve" smooth="yes"/>
			<point x="490" y="489"/>
			<point x="546" y="438"/>
			<point x="635" y="431" type="curve"/>
			<point x="574" y="469" type="line"/>
			<point x="425" y="379"/>
			<point x="392" y="316"/>
			<point x="392" y="113" type="curve" smooth="yes"/>
			<point x="392" y="55" type="line"/>
			<point x="469" y="120" type="line"/>
			<point x="393" y="120" type="line" smooth="yes"/>
			<point x="291" y="120"/>
			<point x="214" y="219"/>
			<point x="214" y="348" type="curve" smooth="yes"/>
			<point x="214" y="474"/>
			<point x="273" y="560"/>
			<point x="413" y="637" type="curve"/>
			<point x="340" y="753" type="line"/>
			<point x="164" y="660"/>
			<point x="65" y="516"/>
			<point x="65" y="351" type="curve" smooth="yes"/>
			<point x="65" y="149"/>
			<point x="204" y="0"/>
			<point x="392" y="0" type="curve" smooth="yes"/>
		</contour>
		<contour>
			<point x="641" y="517" type="curve" smooth="yes"/>
			<point x="618" y="517"/>
			<point x="599" y="536"/>
			<point x="599" y="559" type="curve" smooth="yes"/>
			<point x="599" y="583"/>
			<point x="617" y="601"/>
			<point x="641" y="601" type="curve" smooth="yes"/>
			<point x="664" y="601"/>
			<point x="683" y="582"/>
			<point x="683" y="559" type="curve" smooth="yes"/>
			<point x="683" y="536"/>
			<point x="664" y="517"/>
		</contour>
	</outline>
</glyph>
<glyph name="six-rohg" format="2">
	<unicode hex="10D36"/>
	<advance width="706"/>
	<outline>
		<contour>
			<point x="328" y="-10" type="curve" smooth="yes"/>
			<point x="517" y="-10"/>
			<point x="626" y="110"/>
			<point x="626" y="329" type="curve" smooth="yes"/>
			<point x="626" y="714" type="line"/>
			<point x="121" y="714" type="line"/>
			<point x="121" y="594" type="line"/>
			<point x="477" y="594" type="line"/>
			<point x="477" y="329" type="line" smooth="yes"/>
			<point x="477" y="188"/>
			<point x="423" y="112"/>
			<point x="322" y="112" type="curve" smooth="yes"/>
			<point x="247" y="112"/>
			<point x="199" y="153"/>
			<point x="199" y="214" type="curve" smooth="yes"/>
			<point x="199" y="274"/>
			<point x="246" y="308"/>
			<point x="321" y="308" type="curve" smooth="yes"/>
			<point x="390" y="308" type="line"/>
			<point x="390" y="428" type="line"/>
			<point x="321" y="428" type="line" smooth="yes"/>
			<point x="157" y="428"/>
			<point x="50" y="342"/>
			<point x="50" y="213" type="curve" smooth="yes"/>
			<point x="50" y="80"/>
			<point x="162" y="-10"/>
		</contour>
	</outline>
</glyph>
<glyph name="seven-rohg" format="2">
	<unicode hex="10D37"/>
	<advance width="710"/>
	<outline>
		<contour>
			<point x="157" y="-10" type="curve" smooth="yes"/>
			<point x="224" y="-10"/>
			<point x="271" y="16"/>
			<point x="313" y="76" type="curve" smooth="yes"/>
			<point x="685" y="608" type="line"/>
			<point x="685" y="714" type="line"/>
			<point x="147" y="714" type="line"/>
			<point x="147" y="594" type="line"/>
			<point x="609" y="594" type="line"/>
			<point x="551" y="639" type="line"/>
			<point x="250" y="208" type="line"/>
			<point x="260" y="84" type="line"/>
			<point x="321" y="39" type="line" smooth="yes"/>
			<point x="363" y="8"/>
			<point x="421" y="-10"/>
			<point x="481" y="-10" type="curve" smooth="yes"/>
			<point x="561" y="-10"/>
			<point x="636" y="21"/>
			<point x="682" y="74" type="curve"/>
			<point x="612" y="164" type="line"/>
			<point x="573" y="130"/>
			<point x="522" y="110"/>
			<point x="475" y="110" type="curve" smooth="yes"/>
			<point x="444" y="110"/>
			<point x="415" y="119"/>
			<point x="390" y="136" type="curve" smooth="yes"/>
			<point x="313" y="190" type="line"/>
			<point x="282" y="190" type="line"/>
			<point x="271" y="249"/>
			<point x="217" y="281"/>
			<point x="155" y="281" type="curve" smooth="yes"/>
			<point x="66" y="281"/>
			<point x="0" y="217"/>
			<point x="0" y="132" type="curve" smooth="yes"/>
			<point x="0" y="50"/>
			<point x="67" y="-10"/>
		</contour>
		<contour>
			<point x="160" y="92" type="curve" smooth="yes"/>
			<point x="137" y="92"/>
			<point x="118" y="111"/>
			<point x="118" y="135" type="curve" smooth="yes"/>
			<point x="118" y="158"/>
			<point x="136" y="176"/>
			<point x="159" y="176" type="curve" smooth="yes"/>
			<point x="183" y="176"/>
			<point x="202" y="157"/>
			<point x="202" y="134" type="curve" smooth="yes"/>
			<point x="202" y="111"/>
			<point x="183" y="92"/>
		</contour>
	</outline>
</glyph>
<glyph name="eight-rohg" format="2">
	<unicode hex="10D38"/>
	<advance width="778"/>
	<outline>
		<contour>
			<point x="100" y="0" type="line"/>
			<point x="249" y="0" type="line"/>
			<point x="249" y="127" type="line" smooth="yes"/>
			<point x="249" y="367"/>
			<point x="336" y="546"/>
			<point x="453" y="546" type="curve" smooth="yes"/>
			<point x="532" y="546"/>
			<point x="564" y="484"/>
			<point x="564" y="331" type="curve" smooth="yes"/>
			<point x="564" y="268" type="line" smooth="yes"/>
			<point x="564" y="149"/>
			<point x="552" y="108"/>
			<point x="518" y="108" type="curve" smooth="yes"/>
			<point x="489" y="108"/>
			<point x="477" y="129"/>
			<point x="477" y="181" type="curve" smooth="yes"/>
			<point x="477" y="224" type="line"/>
			<point x="338" y="224" type="line"/>
			<point x="338" y="181" type="line" smooth="yes"/>
			<point x="338" y="58"/>
			<point x="402" y="-10"/>
			<point x="518" y="-10" type="curve" smooth="yes"/>
			<point x="650" y="-10"/>
			<point x="713" y="79"/>
			<point x="713" y="266" type="curve" smooth="yes"/>
			<point x="713" y="333" type="line" smooth="yes"/>
			<point x="713" y="554"/>
			<point x="633" y="666"/>
			<point x="474" y="666" type="curve" smooth="yes"/>
			<point x="377" y="666"/>
			<point x="295" y="612"/>
			<point x="250" y="517" type="curve"/>
			<point x="242" y="517" type="line"/>
			<point x="242" y="714" type="line"/>
			<point x="100" y="714" type="line"/>
		</contour>
	</outline>
</glyph>
<glyph name="nine-rohg" format="2">
	<unicode hex="10D39"/>
	<advance width="633"/>
	<outline>
		<contour>
			<point x="280" y="0" type="line"/>
			<point x="416" y="0" type="line"/>
			<point x="623" y="219" type="line"/>
			<point x="526" y="302" type="line"/>
			<point x="463" y="231" type="line" smooth="yes"/>
			<point x="444" y="209"/>
			<point x="430" y="192"/>
			<point x="427" y="187" type="curve"/>
			<point x="428" y="194"/>
			<point x="429" y="222"/>
			<point x="429" y="242" type="curve" smooth="yes"/>
			<point x="429" y="530" type="line" smooth="yes"/>
			<point x="429" y="649"/>
			<point x="355" y="724"/>
			<point x="239" y="724" type="curve" smooth="yes"/>
			<point x="111" y="724"/>
			<point x="35" y="643"/>
			<point x="35" y="506" type="curve" smooth="yes"/>
			<point x="35" y="461" type="line" smooth="yes"/>
			<point x="35" y="338"/>
			<point x="104" y="263"/>
			<point x="218" y="263" type="curve" smooth="yes"/>
			<point x="248" y="263"/>
			<point x="283" y="276"/>
			<point x="296" y="292" type="curve"/>
			<point x="280" y="299" type="line"/>
		</contour>
		<contour>
			<point x="232" y="374" type="curve" smooth="yes"/>
			<point x="192" y="374"/>
			<point x="172" y="403"/>
			<point x="172" y="461" type="curve" smooth="yes"/>
			<point x="172" y="506" type="line" smooth="yes"/>
			<point x="172" y="573"/>
			<point x="193" y="606"/>
			<point x="235" y="606" type="curve" smooth="yes"/>
			<point x="270" y="606"/>
			<point x="292" y="576"/>
			<point x="292" y="529" type="curve" smooth="yes"/>
			<point x="292" y="450" type="line" smooth="yes"/>
			<point x="292" y="401"/>
			<point x="271" y="374"/>
		</contour>
	</outline>
</glyph>
<glyph name="a-rohg.init" format="2">
	<advance width="558"/>
	<outline>
		<contour>
			<point x="-35" y="25" type="line"/>
			<point x="-13" y="12"/>
			<point x="38" y="0"/>
			<point x="71" y="0" type="curve" smooth="yes"/>
			<point x="151" y="0" type="line" smooth="yes"/>
			<point x="365" y="0"/>
			<point x="478" y="95"/>
			<point x="478" y="275" type="curve" smooth="yes"/>
			<point x="478" y="555" type="line" smooth="yes"/>
			<point x="478" y="658"/>
			<point x="409" y="724"/>
			<point x="303" y="724" type="curve" smooth="yes"/>
			<point x="201" y="724"/>
			<point x="130" y="657"/>
			<point x="130" y="561" type="curve" smooth="yes"/>
			<point x="130" y="242" type="line" smooth="yes"/>
			<point x="130" y="171"/>
			<point x="156" y="117"/>
			<point x="206" y="83" type="curve"/>
			<point x="302" y="152" type="line"/>
			<point x="280" y="172"/>
			<point x="267" y="205"/>
			<point x="267" y="241" type="curve" smooth="yes"/>
			<point x="267" y="561" type="line" smooth="yes"/>
			<point x="267" y="591"/>
			<point x="277" y="604"/>
			<point x="298" y="604" type="curve" smooth="yes"/>
			<point x="319" y="604"/>
			<point x="329" y="591"/>
			<point x="329" y="561" type="curve" smooth="yes"/>
			<point x="329" y="280" type="line" smooth="yes"/>
			<point x="329" y="175"/>
			<point x="275" y="120"/>
			<point x="169" y="120" type="curve" smooth="yes"/>
			<point x="-35" y="120" type="line"/>
		</contour>
	</outline>
	<anchor name="top" x="304" y="714"/>
</glyph>
<glyph name="avowel-rohg.init" format="2">
	<advance width="583"/>
	<outline>
		<contour>
			<point x="-35" y="25" type="line"/>
			<point x="-13" y="12"/>
			<point x="39" y="0"/>
			<point x="71" y="0" type="curve" smooth="yes"/>
			<point x="323" y="0" type="line" smooth="yes"/>
			<point x="456" y="0"/>
			<point x="538" y="66"/>
			<point x="538" y="174" type="curve" smooth="yes"/>
			<point x="538" y="274"/>
			<point x="463" y="343"/>
			<point x="353" y="343" type="curve" smooth="yes"/>
			<point x="271" y="343"/>
			<point x="207" y="304"/>
			<point x="126" y="203" type="curve" smooth="yes"/>
			<point x="22" y="74" type="line"/>
			<point x="182" y="74" type="line"/>
			<point x="245" y="152" type="line" smooth="yes"/>
			<point x="289" y="206"/>
			<point x="312" y="223"/>
			<point x="344" y="223" type="curve" smooth="yes"/>
			<point x="374" y="223"/>
			<point x="389" y="207"/>
			<point x="389" y="177" type="curve" smooth="yes"/>
			<point x="389" y="137"/>
			<point x="363" y="120"/>
			<point x="300" y="120" type="curve" smooth="yes"/>
			<point x="-35" y="120" type="line"/>
		</contour>
	</outline>
	<anchor name="top" x="280" y="714"/>
</glyph>
<glyph name="ba-rohg.init" format="2">
	<advance width="449"/>
	<outline>
		<contour>
			<point x="-35" y="25" type="line"/>
			<point x="-13" y="12"/>
			<point x="38" y="0"/>
			<point x="71" y="0" type="curve" smooth="yes"/>
			<point x="104" y="0" type="line" smooth="yes"/>
			<point x="270" y="0"/>
			<point x="369" y="103"/>
			<point x="369" y="275" type="curve" smooth="yes"/>
			<point x="369" y="577" type="line" smooth="yes"/>
			<point x="369" y="667"/>
			<point x="323" y="714"/>
			<point x="235" y="714" type="curve" smooth="yes"/>
			<point x="71" y="714" type="line"/>
			<point x="71" y="594" type="line"/>
			<point x="178" y="594" type="line" smooth="yes"/>
			<point x="206" y="594"/>
			<point x="220" y="579"/>
			<point x="220" y="550" type="curve" smooth="yes"/>
			<point x="220" y="280" type="line" smooth="yes"/>
			<point x="220" y="174"/>
			<point x="170" y="120"/>
			<point x="70" y="120" type="curve" smooth="yes"/>
			<point x="-35" y="120" type="line"/>
		</contour>
	</outline>
	<anchor name="top" x="211" y="714"/>
</glyph>
<glyph name="ca-rohg.init" format="2">
	<advance width="683"/>
	<outline>
		<contour>
			<point x="371" y="0" type="curve" smooth="yes"/>
			<point x="520" y="0"/>
			<point x="603" y="85"/>
			<point x="603" y="235" type="curve" smooth="yes"/>
			<point x="603" y="714" type="line"/>
			<point x="454" y="714" type="line"/>
			<point x="454" y="240" type="line" smooth="yes"/>
			<point x="454" y="161"/>
			<point x="417" y="120"/>
			<point x="346" y="120" type="curve" smooth="yes"/>
			<point x="307" y="120"/>
			<point x="276" y="136"/>
			<point x="223" y="184" type="curve"/>
			<point x="150" y="84" type="line"/>
			<point x="212" y="29"/>
			<point x="289" y="0"/>
		</contour>
		<contour>
			<point x="-35" y="25" type="line"/>
			<point x="-13" y="12"/>
			<point x="38" y="0"/>
			<point x="70" y="0" type="curve" smooth="yes"/>
			<point x="147" y="0"/>
			<point x="210" y="39"/>
			<point x="280" y="130" type="curve" smooth="yes"/>
			<point x="520" y="444" type="line"/>
			<point x="520" y="626" type="line"/>
			<point x="197" y="204" type="line"/>
			<point x="152" y="144"/>
			<point x="109" y="120"/>
			<point x="50" y="120" type="curve" smooth="yes"/>
			<point x="-35" y="120" type="line"/>
		</contour>
	</outline>
	<anchor name="top" x="401" y="714"/>
</glyph>
<glyph name="da-rohg.init" format="2">
	<advance width="487"/>
	<outline>
		<contour>
			<point x="-35" y="25" type="line"/>
			<point x="-13" y="12"/>
			<point x="39" y="0"/>
			<point x="71" y="0" type="curve" smooth="yes"/>
			<point x="182" y="0" type="line" smooth="yes"/>
			<point x="341" y="0"/>
			<point x="442" y="97"/>
			<point x="442" y="248" type="curve" smooth="yes"/>
			<point x="442" y="380"/>
			<point x="342" y="476"/>
			<point x="205" y="476" type="curve" smooth="yes"/>
			<point x="143" y="476"/>
			<point x="84" y="456"/>
			<point x="36" y="420" type="curve"/>
			<point x="84" y="315" type="line"/>
			<point x="119" y="343"/>
			<point x="153" y="356"/>
			<point x="188" y="356" type="curve" smooth="yes"/>
			<point x="255" y="356"/>
			<point x="293" y="317"/>
			<point x="293" y="247" type="curve" smooth="yes"/>
			<point x="293" y="166"/>
			<point x="241" y="120"/>
			<point x="148" y="120" type="curve" smooth="yes"/>
			<point x="-35" y="120" type="line"/>
		</contour>
	</outline>
	<anchor name="top" x="233" y="714"/>
</glyph>
<glyph name="dda-rohg.init" format="2">
	<advance width="792"/>
	<outline>
		<contour>
			<point x="100" y="53" type="line"/>
			<point x="249" y="53" type="line"/>
			<point x="249" y="714" type="line"/>
			<point x="100" y="714" type="line"/>
		</contour>
		<contour>
			<point x="-35" y="25" type="line"/>
			<point x="-13" y="12"/>
			<point x="38" y="0"/>
			<point x="71" y="0" type="curve" smooth="yes"/>
			<point x="440" y="0" type="line" smooth="yes"/>
			<point x="640" y="0"/>
			<point x="747" y="72"/>
			<point x="747" y="207" type="curve" smooth="yes"/>
			<point x="747" y="324"/>
			<point x="667" y="400"/>
			<point x="545" y="400" type="curve" smooth="yes"/>
			<point x="414" y="400"/>
			<point x="285" y="326"/>
			<point x="210" y="209" type="curve"/>
			<point x="210" y="93" type="line"/>
			<point x="279" y="198"/>
			<point x="412" y="280"/>
			<point x="515" y="280" type="curve" smooth="yes"/>
			<point x="567" y="280"/>
			<point x="598" y="253"/>
			<point x="598" y="208" type="curve" smooth="yes"/>
			<point x="598" y="148"/>
			<point x="543" y="120"/>
			<point x="426" y="120" type="curve" smooth="yes"/>
			<point x="-35" y="120" type="line"/>
		</contour>
		<contour>
			<point x="332" y="102" type="curve"/>
			<point x="468" y="102" type="line"/>
			<point x="477" y="124"/>
			<point x="482" y="145"/>
			<point x="482" y="166" type="curve" smooth="yes"/>
			<point x="482" y="222"/>
			<point x="450" y="270"/>
			<point x="400" y="289" type="curve"/>
			<point x="319" y="223" type="line"/>
			<point x="343" y="207"/>
			<point x="357" y="182"/>
			<point x="357" y="156" type="curve" smooth="yes"/>
			<point x="357" y="136"/>
			<point x="349" y="118"/>
		</contour>
	</outline>
	<anchor name="top" x="424" y="714"/>
</glyph>
<glyph name="ga-rohg.init" format="2">
	<advance width="708"/>
	<outline>
		<contour>
			<point x="-35" y="25" type="line"/>
			<point x="-13" y="12"/>
			<point x="38" y="0"/>
			<point x="71" y="0" type="curve" smooth="yes"/>
			<point x="144" y="0" type="line" smooth="yes"/>
			<point x="210" y="0"/>
			<point x="265" y="22"/>
			<point x="309" y="66" type="curve"/>
			<point x="257" y="67" type="line"/>
			<point x="297" y="25"/>
			<point x="361" y="0"/>
			<point x="431" y="0" type="curve" smooth="yes"/>
			<point x="698" y="0" type="line"/>
			<point x="698" y="120" type="line"/>
			<point x="475" y="120" type="line" smooth="yes"/>
			<point x="363" y="120"/>
			<point x="315" y="172"/>
			<point x="315" y="291" type="curve" smooth="yes"/>
			<point x="315" y="389"/>
			<point x="347" y="441"/>
			<point x="408" y="441" type="curve" smooth="yes"/>
			<point x="447" y="441"/>
			<point x="474" y="417"/>
			<point x="474" y="383" type="curve" smooth="yes"/>
			<point x="474" y="350"/>
			<point x="450" y="327"/>
			<point x="414" y="327" type="curve" smooth="yes"/>
			<point x="394" y="327" type="line"/>
			<point x="394" y="220" type="line"/>
			<point x="425" y="220" type="line" smooth="yes"/>
			<point x="531" y="220"/>
			<point x="603" y="286"/>
			<point x="603" y="383" type="curve" smooth="yes"/>
			<point x="603" y="486"/>
			<point x="522" y="556"/>
			<point x="405" y="556" type="curve" smooth="yes"/>
			<point x="263" y="556"/>
			<point x="166" y="448"/>
			<point x="166" y="289" type="curve" smooth="yes"/>
			<point x="166" y="206"/>
			<point x="181" y="153"/>
			<point x="215" y="115" type="curve"/>
			<point x="215" y="150" type="line"/>
			<point x="185" y="130"/>
			<point x="151" y="120"/>
			<point x="110" y="120" type="curve" smooth="yes"/>
			<point x="-35" y="120" type="line"/>
		</contour>
	</outline>
	<anchor name="top" x="385" y="714"/>
</glyph>
<glyph name="ha-rohg.init" format="2">
	<advance width="760"/>
	<outline>
		<contour>
			<point x="-35" y="25" type="line"/>
			<point x="-13" y="12"/>
			<point x="38" y="0"/>
			<point x="71" y="0" type="curve" smooth="yes"/>
			<point x="103" y="0" type="line" smooth="yes"/>
			<point x="202" y="0"/>
			<point x="281" y="35"/>
			<point x="315" y="94" type="curve"/>
			<point x="384" y="126"/>
			<point x="426" y="184"/>
			<point x="426" y="246" type="curve" smooth="yes"/>
			<point x="426" y="342"/>
			<point x="354" y="406"/>
			<point x="247" y="406" type="curve" smooth="yes"/>
			<point x="138" y="406"/>
			<point x="62" y="340"/>
			<point x="62" y="247" type="curve" smooth="yes"/>
			<point x="62" y="186"/>
			<point x="93" y="139"/>
			<point x="151" y="111" type="curve"/>
			<point x="151" y="130" type="line"/>
			<point x="138" y="123"/>
			<point x="124" y="120"/>
			<point x="103" y="120" type="curve" smooth="yes"/>
			<point x="-35" y="120" type="line"/>
		</contour>
		<contour>
			<point x="241" y="170" type="curve" smooth="yes"/>
			<point x="206" y="170"/>
			<point x="177" y="199"/>
			<point x="177" y="236" type="curve" smooth="yes"/>
			<point x="177" y="272"/>
			<point x="205" y="300"/>
			<point x="241" y="300" type="curve" smooth="yes"/>
			<point x="277" y="300"/>
			<point x="304" y="273"/>
			<point x="304" y="236" type="curve" smooth="yes"/>
			<point x="304" y="199"/>
			<point x="277" y="170"/>
		</contour>
		<contour>
			<point x="457" y="0" type="curve" smooth="yes"/>
			<point x="615" y="0"/>
			<point x="715" y="96"/>
			<point x="715" y="248" type="curve" smooth="yes"/>
			<point x="715" y="285" type="line" smooth="yes"/>
			<point x="715" y="445"/>
			<point x="624" y="546"/>
			<point x="479" y="546" type="curve" smooth="yes"/>
			<point x="367" y="546"/>
			<point x="284" y="486"/>
			<point x="233" y="369" type="curve"/>
			<point x="363" y="321" type="line"/>
			<point x="378" y="389"/>
			<point x="415" y="426"/>
			<point x="468" y="426" type="curve" smooth="yes"/>
			<point x="528" y="426"/>
			<point x="566" y="372"/>
			<point x="566" y="285" type="curve" smooth="yes"/>
			<point x="566" y="247" type="line" smooth="yes"/>
			<point x="566" y="166"/>
			<point x="512" y="120"/>
			<point x="419" y="120" type="curve" smooth="yes"/>
			<point x="373" y="120"/>
			<point x="350" y="125"/>
			<point x="279" y="152" type="curve"/>
			<point x="225" y="60" type="line"/>
			<point x="278" y="29"/>
			<point x="390" y="0"/>
		</contour>
	</outline>
	<anchor name="top" x="422" y="714"/>
</glyph>
<glyph name="ja-rohg.init" format="2">
	<advance width="683"/>
	<outline>
		<contour>
			<point x="371" y="0" type="curve" smooth="yes"/>
			<point x="520" y="0"/>
			<point x="603" y="85"/>
			<point x="603" y="235" type="curve" smooth="yes"/>
			<point x="603" y="533" type="line" smooth="yes"/>
			<point x="603" y="658"/>
			<point x="540" y="724"/>
			<point x="420" y="724" type="curve" smooth="yes"/>
			<point x="307" y="724"/>
			<point x="241" y="654"/>
			<point x="241" y="533" type="curve" smooth="yes"/>
			<point x="241" y="515" type="line"/>
			<point x="380" y="515" type="line"/>
			<point x="380" y="533" type="line" smooth="yes"/>
			<point x="380" y="588"/>
			<point x="389" y="606"/>
			<point x="415" y="606" type="curve" smooth="yes"/>
			<point x="443" y="606"/>
			<point x="454" y="586"/>
			<point x="454" y="533" type="curve" smooth="yes"/>
			<point x="454" y="240" type="line" smooth="yes"/>
			<point x="454" y="161"/>
			<point x="417" y="120"/>
			<point x="346" y="120" type="curve" smooth="yes"/>
			<point x="307" y="120"/>
			<point x="276" y="136"/>
			<point x="223" y="184" type="curve"/>
			<point x="150" y="84" type="line"/>
			<point x="212" y="29"/>
			<point x="289" y="0"/>
		</contour>
		<contour>
			<point x="-35" y="25" type="line"/>
			<point x="-13" y="12"/>
			<point x="38" y="0"/>
			<point x="70" y="0" type="curve" smooth="yes"/>
			<point x="147" y="0"/>
			<point x="210" y="39"/>
			<point x="280" y="130" type="curve" smooth="yes"/>
			<point x="520" y="444" type="line"/>
			<point x="520" y="626" type="line"/>
			<point x="197" y="204" type="line" smooth="yes"/>
			<point x="151" y="144"/>
			<point x="109" y="120"/>
			<point x="50" y="120" type="curve" smooth="yes"/>
			<point x="-35" y="120" type="line"/>
		</contour>
	</outline>
	<anchor name="top" x="410" y="714"/>
</glyph>
<glyph name="ka-rohg.init" format="2">
	<advance width="822"/>
	<outline>
		<contour>
			<point x="288" y="53" type="line"/>
			<point x="288" y="561" type="line" smooth="yes"/>
			<point x="288" y="591"/>
			<point x="298" y="604"/>
			<point x="319" y="604" type="curve" smooth="yes"/>
			<point x="340" y="604"/>
			<point x="350" y="591"/>
			<point x="350" y="561" type="curve" smooth="yes"/>
			<point x="350" y="240" type="line"/>
			<point x="499" y="317" type="line"/>
			<point x="499" y="555" type="line" smooth="yes"/>
			<point x="499" y="658"/>
			<point x="430" y="724"/>
			<point x="324" y="724" type="curve" smooth="yes"/>
			<point x="222" y="724"/>
			<point x="151" y="657"/>
			<point x="151" y="561" type="curve" smooth="yes"/>
			<point x="151" y="53" type="line"/>
		</contour>
		<contour>
			<point x="-35" y="25" type="line"/>
			<point x="-13" y="12"/>
			<point x="38" y="0"/>
			<point x="71" y="0" type="curve" smooth="yes"/>
			<point x="470" y="0" type="line" smooth="yes"/>
			<point x="670" y="0"/>
			<point x="777" y="72"/>
			<point x="777" y="207" type="curve" smooth="yes"/>
			<point x="777" y="324"/>
			<point x="697" y="400"/>
			<point x="575" y="400" type="curve" smooth="yes"/>
			<point x="424" y="400"/>
			<point x="316" y="289"/>
			<point x="270" y="209" type="curve"/>
			<point x="270" y="93" type="line"/>
			<point x="332" y="198"/>
			<point x="452" y="280"/>
			<point x="545" y="280" type="curve" smooth="yes"/>
			<point x="597" y="280"/>
			<point x="628" y="253"/>
			<point x="628" y="208" type="curve" smooth="yes"/>
			<point x="628" y="148"/>
			<point x="573" y="120"/>
			<point x="456" y="120" type="curve" smooth="yes"/>
			<point x="-35" y="120" type="line"/>
		</contour>
	</outline>
	<anchor name="top" x="325" y="714"/>
</glyph>
<glyph name="kha-rohg.init" format="2">
	<advance width="522"/>
	<outline>
		<contour>
			<point x="-35" y="25" type="line"/>
			<point x="-13" y="12"/>
			<point x="38" y="0"/>
			<point x="71" y="0" type="curve" smooth="yes"/>
			<point x="214" y="0" type="line" smooth="yes"/>
			<point x="376" y="0"/>
			<point x="479" y="103"/>
			<point x="479" y="264" type="curve" smooth="yes"/>
			<point x="479" y="416"/>
			<point x="382" y="514"/>
			<point x="231" y="514" type="curve" smooth="yes"/>
			<point x="169" y="514" type="line"/>
			<point x="240" y="455" type="line"/>
			<point x="255" y="473" type="line"/>
			<point x="400" y="585" type="line"/>
			<point x="512" y="675" type="line"/>
			<point x="430" y="782" type="line"/>
			<point x="91" y="501" type="line"/>
			<point x="91" y="406" type="line"/>
			<point x="171" y="406" type="line" smooth="yes"/>
			<point x="275" y="406"/>
			<point x="330" y="357"/>
			<point x="330" y="264" type="curve" smooth="yes"/>
			<point x="330" y="173"/>
			<point x="275" y="120"/>
			<point x="180" y="120" type="curve" smooth="yes"/>
			<point x="-35" y="120" type="line"/>
		</contour>
	</outline>
	<anchor name="top" x="275" y="714"/>
</glyph>
<glyph name="kinnawa-rohg.init" format="2">
	<advance width="599"/>
	<outline>
		<contour>
			<point x="-35" y="25" type="line"/>
			<point x="-13" y="12"/>
			<point x="38" y="0"/>
			<point x="71" y="0" type="curve" smooth="yes"/>
			<point x="254" y="0" type="line" smooth="yes"/>
			<point x="420" y="0"/>
			<point x="519" y="103"/>
			<point x="519" y="275" type="curve" smooth="yes"/>
			<point x="519" y="556" type="line" smooth="yes"/>
			<point x="519" y="661"/>
			<point x="455" y="724"/>
			<point x="348" y="724" type="curve" smooth="yes"/>
			<point x="323" y="724"/>
			<point x="319" y="724"/>
			<point x="206" y="705" type="curve" smooth="yes"/>
			<point x="103" y="688"/>
			<point x="41" y="629"/>
			<point x="41" y="548" type="curve" smooth="yes"/>
			<point x="41" y="466"/>
			<point x="104" y="407"/>
			<point x="193" y="407" type="curve" smooth="yes"/>
			<point x="279" y="407"/>
			<point x="340" y="464"/>
			<point x="340" y="545" type="curve" smooth="yes"/>
			<point x="340" y="574"/>
			<point x="330" y="600"/>
			<point x="312" y="618" type="curve"/>
			<point x="302" y="595" type="line"/>
			<point x="312" y="599"/>
			<point x="321" y="601"/>
			<point x="331" y="601" type="curve" smooth="yes"/>
			<point x="357" y="601"/>
			<point x="370" y="587"/>
			<point x="370" y="561" type="curve" smooth="yes"/>
			<point x="370" y="280" type="line" smooth="yes"/>
			<point x="370" y="174"/>
			<point x="320" y="120"/>
			<point x="220" y="120" type="curve" smooth="yes"/>
			<point x="-35" y="120" type="line"/>
		</contour>
		<contour>
			<point x="193" y="505" type="curve" smooth="yes"/>
			<point x="170" y="505"/>
			<point x="151" y="524"/>
			<point x="151" y="547" type="curve" smooth="yes"/>
			<point x="151" y="570"/>
			<point x="170" y="589"/>
			<point x="193" y="589" type="curve" smooth="yes"/>
			<point x="216" y="589"/>
			<point x="235" y="570"/>
			<point x="235" y="547" type="curve" smooth="yes"/>
			<point x="235" y="523"/>
			<point x="217" y="505"/>
		</contour>
	</outline>
	<anchor name="top" x="271" y="714"/>
</glyph>
<glyph name="la-rohg.init" format="2">
	<advance width="449"/>
	<outline>
		<contour>
			<point x="-35" y="25" type="line"/>
			<point x="-13" y="12"/>
			<point x="39" y="0"/>
			<point x="71" y="0" type="curve" smooth="yes"/>
			<point x="104" y="0" type="line" smooth="yes"/>
			<point x="270" y="0"/>
			<point x="369" y="103"/>
			<point x="369" y="275" type="curve" smooth="yes"/>
			<point x="369" y="714" type="line"/>
			<point x="220" y="714" type="line"/>
			<point x="220" y="280" type="line" smooth="yes"/>
			<point x="220" y="174"/>
			<point x="170" y="120"/>
			<point x="70" y="120" type="curve" smooth="yes"/>
			<point x="-35" y="120" type="line"/>
		</contour>
	</outline>
	<anchor name="top" x="294" y="714"/>
</glyph>
<glyph name="ma-rohg.init" format="2">
	<advance width="551"/>
	<outline>
		<contour>
			<point x="-35" y="25" type="line"/>
			<point x="-14" y="11"/>
			<point x="32" y="0"/>
			<point x="70" y="0" type="curve" smooth="yes"/>
			<point x="141" y="0"/>
			<point x="203" y="32"/>
			<point x="238" y="87" type="curve"/>
			<point x="266" y="179" type="line" smooth="yes"/>
			<point x="287" y="246"/>
			<point x="304" y="268"/>
			<point x="334" y="268" type="curve" smooth="yes"/>
			<point x="368" y="268"/>
			<point x="388" y="240"/>
			<point x="388" y="195" type="curve" smooth="yes"/>
			<point x="388" y="141"/>
			<point x="369" y="116"/>
			<point x="327" y="116" type="curve" smooth="yes"/>
			<point x="291" y="116"/>
			<point x="258" y="135"/>
			<point x="236" y="169" type="curve"/>
			<point x="178" y="66" type="line"/>
			<point x="234" y="18"/>
			<point x="279" y="0"/>
			<point x="342" y="0" type="curve" smooth="yes"/>
			<point x="458" y="0"/>
			<point x="521" y="68"/>
			<point x="521" y="191" type="curve" smooth="yes"/>
			<point x="521" y="309"/>
			<point x="446" y="388"/>
			<point x="332" y="388" type="curve" smooth="yes"/>
			<point x="240" y="388"/>
			<point x="183" y="338"/>
			<point x="149" y="227" type="curve" smooth="yes"/>
			<point x="145" y="214" type="line" smooth="yes"/>
			<point x="118" y="129"/>
			<point x="106" y="120"/>
			<point x="9" y="120" type="curve" smooth="yes"/>
			<point x="-35" y="120" type="line"/>
		</contour>
	</outline>
	<anchor name="top" x="342" y="714"/>
</glyph>
<glyph name="na-rohg.init" format="2">
	<advance width="824"/>
	<outline>
		<contour>
			<point x="361" y="0" type="curve" smooth="yes"/>
			<point x="481" y="0"/>
			<point x="555" y="69"/>
			<point x="555" y="180" type="curve" smooth="yes"/>
			<point x="555" y="292"/>
			<point x="480" y="362"/>
			<point x="360" y="362" type="curve" smooth="yes"/>
			<point x="313" y="362"/>
			<point x="273" y="352"/>
			<point x="212" y="322" type="curve"/>
			<point x="251" y="212" type="line"/>
			<point x="283" y="236"/>
			<point x="309" y="246"/>
			<point x="339" y="246" type="curve" smooth="yes"/>
			<point x="384" y="246"/>
			<point x="410" y="222"/>
			<point x="410" y="181" type="curve" smooth="yes"/>
			<point x="410" y="141"/>
			<point x="385" y="116"/>
			<point x="345" y="116" type="curve" smooth="yes"/>
			<point x="310" y="116"/>
			<point x="280" y="135"/>
			<point x="258" y="169" type="curve"/>
			<point x="200" y="66" type="line"/>
			<point x="255" y="18"/>
			<point x="300" y="0"/>
		</contour>
		<contour>
			<point x="-35" y="25" type="line"/>
			<point x="-13" y="12"/>
			<point x="39" y="0"/>
			<point x="71" y="0" type="curve" smooth="yes"/>
			<point x="84" y="0" type="line" smooth="yes"/>
			<point x="227" y="0"/>
			<point x="312" y="103"/>
			<point x="312" y="275" type="curve" smooth="yes"/>
			<point x="312" y="397" type="line" smooth="yes"/>
			<point x="312" y="497"/>
			<point x="361" y="549"/>
			<point x="453" y="549" type="curve" smooth="yes"/>
			<point x="546" y="549"/>
			<point x="595" y="497"/>
			<point x="595" y="397" type="curve" smooth="yes"/>
			<point x="595" y="0" type="line"/>
			<point x="744" y="0" type="line"/>
			<point x="744" y="412" type="line" smooth="yes"/>
			<point x="744" y="573"/>
			<point x="632" y="674"/>
			<point x="453" y="674" type="curve" smooth="yes"/>
			<point x="275" y="674"/>
			<point x="163" y="573"/>
			<point x="163" y="412" type="curve" smooth="yes"/>
			<point x="163" y="280" type="line" smooth="yes"/>
			<point x="163" y="174"/>
			<point x="125" y="120"/>
			<point x="50" y="120" type="curve" smooth="yes"/>
			<point x="-35" y="120" type="line"/>
		</contour>
	</outline>
	<anchor name="top" x="453" y="714"/>
</glyph>
<glyph name="nga-rohg.init" format="2">
	<advance width="792"/>
	<outline>
		<contour>
			<point x="371" y="0" type="curve" smooth="yes"/>
			<point x="520" y="0"/>
			<point x="603" y="85"/>
			<point x="603" y="235" type="curve" smooth="yes"/>
			<point x="603" y="714" type="line"/>
			<point x="454" y="714" type="line"/>
			<point x="454" y="240" type="line" smooth="yes"/>
			<point x="454" y="161"/>
			<point x="417" y="120"/>
			<point x="346" y="120" type="curve" smooth="yes"/>
			<point x="307" y="120"/>
			<point x="276" y="136"/>
			<point x="223" y="184" type="curve"/>
			<point x="150" y="84" type="line"/>
			<point x="212" y="29"/>
			<point x="289" y="0"/>
		</contour>
		<contour>
			<point x="-35" y="25" type="line"/>
			<point x="-13" y="12"/>
			<point x="38" y="0"/>
			<point x="70" y="0" type="curve" smooth="yes"/>
			<point x="145" y="0"/>
			<point x="202" y="32"/>
			<point x="262" y="107" type="curve"/>
			<point x="531" y="388" type="line"/>
			<point x="579" y="395" type="line"/>
			<point x="782" y="537" type="line"/>
			<point x="705" y="640" type="line"/>
			<point x="540" y="520" type="line"/>
			<point x="500" y="500" type="line"/>
			<point x="200" y="199" type="line" smooth="yes"/>
			<point x="140" y="139"/>
			<point x="97" y="120"/>
			<point x="20" y="120" type="curve" smooth="yes"/>
			<point x="-35" y="120" type="line"/>
		</contour>
	</outline>
	<anchor name="top" x="410" y="714"/>
</glyph>
<glyph name="nya-rohg.init" format="2">
	<advance width="557"/>
	<outline>
		<contour>
			<point x="-35" y="25" type="line"/>
			<point x="-13" y="12"/>
			<point x="39" y="0"/>
			<point x="71" y="0" type="curve" smooth="yes"/>
			<point x="105" y="0" type="line" smooth="yes"/>
			<point x="271" y="0"/>
			<point x="370" y="103"/>
			<point x="370" y="275" type="curve" smooth="yes"/>
			<point x="370" y="714" type="line"/>
			<point x="221" y="714" type="line"/>
			<point x="221" y="280" type="line" smooth="yes"/>
			<point x="221" y="174"/>
			<point x="171" y="120"/>
			<point x="71" y="120" type="curve" smooth="yes"/>
			<point x="-35" y="120" type="line"/>
		</contour>
		<contour>
			<point x="427" y="324" type="line"/>
			<point x="547" y="324" type="line"/>
			<point x="547" y="410" type="line" smooth="yes"/>
			<point x="547" y="500"/>
			<point x="501" y="547"/>
			<point x="413" y="547" type="curve" smooth="yes"/>
			<point x="289" y="547" type="line"/>
			<point x="289" y="437" type="line"/>
			<point x="385" y="437" type="line" smooth="yes"/>
			<point x="413" y="437"/>
			<point x="427" y="422"/>
			<point x="427" y="393" type="curve" smooth="yes"/>
		</contour>
	</outline>
	<anchor name="top" x="295" y="714"/>
</glyph>
<glyph name="ovowel-rohg.init" format="2">
	<advance width="547"/>
	<outline>
		<contour>
			<point x="-35" y="25" type="line"/>
			<point x="-13" y="12"/>
			<point x="38" y="0"/>
			<point x="70" y="0" type="curve" smooth="yes"/>
			<point x="278" y="0" type="line" smooth="yes"/>
			<point x="425" y="0"/>
			<point x="502" y="55"/>
			<point x="502" y="159" type="curve" smooth="yes"/>
			<point x="502" y="235"/>
			<point x="450" y="283"/>
			<point x="360" y="292" type="curve"/>
			<point x="313" y="243" type="line"/>
			<point x="411" y="258"/>
			<point x="466" y="311"/>
			<point x="466" y="392" type="curve" smooth="yes"/>
			<point x="466" y="479"/>
			<point x="395" y="536"/>
			<point x="285" y="536" type="curve" smooth="yes"/>
			<point x="168" y="536"/>
			<point x="97" y="471"/>
			<point x="97" y="364" type="curve" smooth="yes"/>
			<point x="97" y="42" type="line"/>
			<point x="240" y="42" type="line"/>
			<point x="240" y="364" type="line" smooth="yes"/>
			<point x="240" y="401"/>
			<point x="254" y="419"/>
			<point x="282" y="419" type="curve" smooth="yes"/>
			<point x="308" y="419"/>
			<point x="323" y="403"/>
			<point x="323" y="374" type="curve" smooth="yes"/>
			<point x="323" y="347"/>
			<point x="306" y="325"/>
			<point x="278" y="318" type="curve"/>
			<point x="278" y="224" type="line"/>
			<point x="288" y="224" type="line" smooth="yes"/>
			<point x="335" y="224"/>
			<point x="359" y="207"/>
			<point x="359" y="172" type="curve" smooth="yes"/>
			<point x="359" y="136"/>
			<point x="338" y="120"/>
			<point x="288" y="120" type="curve" smooth="yes"/>
			<point x="-35" y="120" type="line"/>
		</contour>
	</outline>
	<anchor name="top" x="281" y="714"/>
</glyph>
<glyph name="pa-rohg.init" format="2">
	<advance width="462"/>
	<outline>
		<contour>
			<point x="-35" y="25" type="line"/>
			<point x="-13" y="12"/>
			<point x="38" y="0"/>
			<point x="71" y="0" type="curve" smooth="yes"/>
			<point x="152" y="0" type="line" smooth="yes"/>
			<point x="318" y="0"/>
			<point x="417" y="103"/>
			<point x="417" y="275" type="curve" smooth="yes"/>
			<point x="417" y="363" type="line" smooth="yes"/>
			<point x="417" y="479"/>
			<point x="340" y="556"/>
			<point x="224" y="556" type="curve" smooth="yes"/>
			<point x="122" y="556"/>
			<point x="47" y="489"/>
			<point x="47" y="398" type="curve" smooth="yes"/>
			<point x="47" y="299"/>
			<point x="130" y="232"/>
			<point x="253" y="232" type="curve" smooth="yes"/>
			<point x="318" y="232" type="line"/>
			<point x="318" y="339" type="line"/>
			<point x="264" y="339" type="line" smooth="yes"/>
			<point x="206" y="339"/>
			<point x="174" y="360"/>
			<point x="174" y="398" type="curve" smooth="yes"/>
			<point x="174" y="426"/>
			<point x="195" y="449"/>
			<point x="222" y="449" type="curve" smooth="yes"/>
			<point x="258" y="449"/>
			<point x="278" y="418"/>
			<point x="278" y="363" type="curve" smooth="yes"/>
			<point x="278" y="280" type="line" smooth="yes"/>
			<point x="278" y="177"/>
			<point x="221" y="120"/>
			<point x="118" y="120" type="curve" smooth="yes"/>
			<point x="-35" y="120" type="line"/>
		</contour>
	</outline>
	<anchor name="top" x="231" y="714"/>
</glyph>
<glyph name="ra-rohg.init" format="2">
	<advance width="590"/>
	<outline>
		<contour>
			<point x="-35" y="25" type="line"/>
			<point x="-13" y="12"/>
			<point x="38" y="0"/>
			<point x="71" y="0" type="curve" smooth="yes"/>
			<point x="121" y="0" type="line" smooth="yes"/>
			<point x="287" y="0"/>
			<point x="386" y="103"/>
			<point x="386" y="275" type="curve" smooth="yes"/>
			<point x="386" y="450" type="line"/>
			<point x="371" y="460" type="line"/>
			<point x="371" y="567" type="line" smooth="yes"/>
			<point x="371" y="596"/>
			<point x="388" y="616"/>
			<point x="414" y="616" type="curve" smooth="yes"/>
			<point x="438" y="616"/>
			<point x="453" y="599"/>
			<point x="453" y="574" type="curve" smooth="yes"/>
			<point x="453" y="544"/>
			<point x="433" y="526"/>
			<point x="401" y="526" type="curve" smooth="yes"/>
			<point x="321" y="526" type="line"/>
			<point x="311" y="541" type="line"/>
			<point x="130" y="541" type="line"/>
			<point x="130" y="421" type="line"/>
			<point x="403" y="421" type="line" smooth="yes"/>
			<point x="508" y="421"/>
			<point x="580" y="482"/>
			<point x="580" y="573" type="curve" smooth="yes"/>
			<point x="580" y="662"/>
			<point x="511" y="724"/>
			<point x="414" y="724" type="curve" smooth="yes"/>
			<point x="311" y="724"/>
			<point x="237" y="654"/>
			<point x="237" y="555" type="curve" smooth="yes"/>
			<point x="237" y="280" type="line" smooth="yes"/>
			<point x="237" y="174"/>
			<point x="187" y="120"/>
			<point x="87" y="120" type="curve" smooth="yes"/>
			<point x="-35" y="120" type="line"/>
		</contour>
	</outline>
	<anchor name="top" x="379" y="714"/>
</glyph>
<glyph name="rra-rohg.init" format="2">
	<advance width="812"/>
	<outline>
		<contour>
			<point x="151" y="53" type="line"/>
			<point x="300" y="53" type="line"/>
			<point x="300" y="450" type="line"/>
			<point x="285" y="460" type="line"/>
			<point x="285" y="567" type="line" smooth="yes"/>
			<point x="285" y="596"/>
			<point x="302" y="616"/>
			<point x="328" y="616" type="curve" smooth="yes"/>
			<point x="352" y="616"/>
			<point x="367" y="599"/>
			<point x="367" y="574" type="curve" smooth="yes"/>
			<point x="367" y="544"/>
			<point x="347" y="526"/>
			<point x="315" y="526" type="curve" smooth="yes"/>
			<point x="235" y="526" type="line"/>
			<point x="225" y="541" type="line"/>
			<point x="44" y="541" type="line"/>
			<point x="44" y="421" type="line"/>
			<point x="317" y="421" type="line" smooth="yes"/>
			<point x="422" y="421"/>
			<point x="494" y="482"/>
			<point x="494" y="573" type="curve" smooth="yes"/>
			<point x="494" y="662"/>
			<point x="425" y="724"/>
			<point x="328" y="724" type="curve" smooth="yes"/>
			<point x="225" y="724"/>
			<point x="151" y="654"/>
			<point x="151" y="555" type="curve" smooth="yes"/>
		</contour>
		<contour>
			<point x="-35" y="25" type="line"/>
			<point x="-13" y="12"/>
			<point x="38" y="0"/>
			<point x="71" y="0" type="curve" smooth="yes"/>
			<point x="460" y="0" type="line" smooth="yes"/>
			<point x="660" y="0"/>
			<point x="767" y="72"/>
			<point x="767" y="207" type="curve" smooth="yes"/>
			<point x="767" y="324"/>
			<point x="687" y="400"/>
			<point x="565" y="400" type="curve" smooth="yes"/>
			<point x="414" y="400"/>
			<point x="306" y="277"/>
			<point x="260" y="189" type="curve"/>
			<point x="260" y="73" type="line"/>
			<point x="322" y="189"/>
			<point x="442" y="280"/>
			<point x="535" y="280" type="curve" smooth="yes"/>
			<point x="587" y="280"/>
			<point x="618" y="253"/>
			<point x="618" y="208" type="curve" smooth="yes"/>
			<point x="618" y="148"/>
			<point x="563" y="120"/>
			<point x="446" y="120" type="curve" smooth="yes"/>
			<point x="-35" y="120" type="line"/>
		</contour>
	</outline>
	<anchor name="top" x="459" y="714"/>
</glyph>
<glyph name="sa-rohg.init" format="2">
	<advance width="542"/>
	<outline>
		<contour>
			<point x="-35" y="25" type="line"/>
			<point x="-13" y="12"/>
			<point x="38" y="0"/>
			<point x="71" y="0" type="curve" smooth="yes"/>
			<point x="232" y="0" type="line" smooth="yes"/>
			<point x="403" y="0"/>
			<point x="497" y="103"/>
			<point x="497" y="289" type="curve" smooth="yes"/>
			<point x="497" y="457"/>
			<point x="411" y="556"/>
			<point x="266" y="556" type="curve" smooth="yes"/>
			<point x="148" y="556"/>
			<point x="60" y="480"/>
			<point x="60" y="379" type="curve" smooth="yes"/>
			<point x="60" y="286"/>
			<point x="134" y="220"/>
			<point x="238" y="220" type="curve" smooth="yes"/>
			<point x="269" y="220" type="line"/>
			<point x="269" y="327" type="line"/>
			<point x="249" y="327" type="line" smooth="yes"/>
			<point x="213" y="327"/>
			<point x="189" y="350"/>
			<point x="189" y="383" type="curve" smooth="yes"/>
			<point x="189" y="417"/>
			<point x="216" y="441"/>
			<point x="256" y="441" type="curve" smooth="yes"/>
			<point x="316" y="441"/>
			<point x="348" y="389"/>
			<point x="348" y="291" type="curve" smooth="yes"/>
			<point x="348" y="173"/>
			<point x="302" y="120"/>
			<point x="198" y="120" type="curve" smooth="yes"/>
			<point x="-35" y="120" type="line"/>
		</contour>
	</outline>
	<anchor name="top" x="262" y="714"/>
</glyph>
<glyph name="sha-rohg.init" format="2">
	<advance width="797"/>
	<outline>
		<contour>
			<point x="-35" y="25" type="line"/>
			<point x="-13" y="12"/>
			<point x="38" y="0"/>
			<point x="71" y="0" type="curve" smooth="yes"/>
			<point x="121" y="0" type="line" smooth="yes"/>
			<point x="197" y="0"/>
			<point x="263" y="44"/>
			<point x="267" y="96" type="curve"/>
			<point x="251" y="95" type="line"/>
			<point x="276" y="31"/>
			<point x="344" y="0"/>
			<point x="464" y="0" type="curve" smooth="yes"/>
			<point x="657" y="0"/>
			<point x="752" y="95"/>
			<point x="752" y="289" type="curve" smooth="yes"/>
			<point x="752" y="457"/>
			<point x="666" y="556"/>
			<point x="521" y="556" type="curve" smooth="yes"/>
			<point x="403" y="556"/>
			<point x="315" y="480"/>
			<point x="315" y="379" type="curve" smooth="yes"/>
			<point x="315" y="286"/>
			<point x="389" y="220"/>
			<point x="493" y="220" type="curve" smooth="yes"/>
			<point x="524" y="220" type="line"/>
			<point x="524" y="327" type="line"/>
			<point x="504" y="327" type="line" smooth="yes"/>
			<point x="468" y="327"/>
			<point x="444" y="350"/>
			<point x="444" y="383" type="curve" smooth="yes"/>
			<point x="444" y="417"/>
			<point x="471" y="441"/>
			<point x="511" y="441" type="curve" smooth="yes"/>
			<point x="571" y="441"/>
			<point x="603" y="389"/>
			<point x="603" y="291" type="curve" smooth="yes"/>
			<point x="603" y="173"/>
			<point x="557" y="120"/>
			<point x="453" y="120" type="curve" smooth="yes"/>
			<point x="361" y="120"/>
			<point x="329" y="145"/>
			<point x="329" y="218" type="curve" smooth="yes"/>
			<point x="329" y="229" type="line"/>
			<point x="180" y="229" type="line"/>
			<point x="180" y="218" type="line" smooth="yes"/>
			<point x="180" y="153"/>
			<point x="149" y="120"/>
			<point x="87" y="120" type="curve" smooth="yes"/>
			<point x="-35" y="120" type="line"/>
		</contour>
	</outline>
	<anchor name="top" x="507" y="714"/>
</glyph>
<glyph name="ta-rohg.init" format="2">
	<advance width="499"/>
	<outline>
		<contour>
			<point x="-35" y="25" type="line"/>
			<point x="-13" y="12"/>
			<point x="38" y="0"/>
			<point x="71" y="0" type="curve" smooth="yes"/>
			<point x="154" y="0" type="line" smooth="yes"/>
			<point x="320" y="0"/>
			<point x="419" y="103"/>
			<point x="419" y="275" type="curve" smooth="yes"/>
			<point x="419" y="533" type="line" smooth="yes"/>
			<point x="419" y="659"/>
			<point x="355" y="724"/>
			<point x="236" y="724" type="curve" smooth="yes"/>
			<point x="116" y="724"/>
			<point x="57" y="659"/>
			<point x="57" y="533" type="curve" smooth="yes"/>
			<point x="57" y="490" type="line"/>
			<point x="196" y="490" type="line"/>
			<point x="196" y="533" type="line" smooth="yes"/>
			<point x="196" y="591"/>
			<point x="206" y="606"/>
			<point x="231" y="606" type="curve" smooth="yes"/>
			<point x="259" y="606"/>
			<point x="270" y="586"/>
			<point x="270" y="533" type="curve" smooth="yes"/>
			<point x="270" y="280" type="line" smooth="yes"/>
			<point x="270" y="174"/>
			<point x="220" y="120"/>
			<point x="120" y="120" type="curve" smooth="yes"/>
			<point x="-35" y="120" type="line"/>
		</contour>
	</outline>
	<anchor name="top" x="241" y="714"/>
</glyph>
<glyph name="tana-rohg.ss01" format="2">
	<outline>
		<contour>
			<point x="-142" y="852" type="line"/>
			<point x="-115" y="896"/>
			<point x="-91" y="910"/>
			<point x="-40" y="910" type="curve" smooth="yes"/>
			<point x="-21" y="910"/>
			<point x="-10" y="909"/>
			<point x="74" y="899" type="curve" smooth="yes"/>
			<point x="128" y="892"/>
			<point x="179" y="888"/>
			<point x="224" y="888" type="curve" smooth="yes"/>
			<point x="317" y="888"/>
			<point x="361" y="921"/>
			<point x="398" y="1021" type="curve"/>
			<point x="314" y="1053" type="line"/>
			<point x="286" y="992"/>
			<point x="271" y="981"/>
			<point x="218" y="981" type="curve" smooth="yes"/>
			<point x="187" y="981"/>
			<point x="153" y="984"/>
			<point x="89" y="992" type="curve" smooth="yes"/>
			<point x="35" y="999"/>
			<point x="-14" y="1003"/>
			<point x="-46" y="1003" type="curve" smooth="yes"/>
			<point x="-130" y="1003"/>
			<point x="-173" y="978"/>
			<point x="-218" y="902" type="curve"/>
		</contour>
	</outline>
	<anchor name="_top" x="0" y="714"/>
	<anchor name="top" x="0" y="1003"/>
</glyph>
<glyph name="tta-rohg.init" format="2">
	<advance width="528"/>
	<outline>
		<contour>
			<point x="-35" y="25" type="line"/>
			<point x="-13" y="12"/>
			<point x="38" y="0"/>
			<point x="70" y="0" type="curve" smooth="yes"/>
			<point x="84" y="0" type="line" smooth="yes"/>
			<point x="250" y="0"/>
			<point x="349" y="103"/>
			<point x="349" y="275" type="curve" smooth="yes"/>
			<point x="349" y="550" type="line" smooth="yes"/>
			<point x="349" y="579"/>
			<point x="363" y="594"/>
			<point x="391" y="594" type="curve" smooth="yes"/>
			<point x="518" y="594" type="line"/>
			<point x="518" y="714" type="line"/>
			<point x="334" y="714" type="line" smooth="yes"/>
			<point x="246" y="714"/>
			<point x="200" y="667"/>
			<point x="200" y="577" type="curve" smooth="yes"/>
			<point x="200" y="280" type="line" smooth="yes"/>
			<point x="200" y="174"/>
			<point x="150" y="120"/>
			<point x="50" y="120" type="curve" smooth="yes"/>
			<point x="-35" y="120" type="line"/>
		</contour>
	</outline>
	<anchor name="top" x="359" y="714"/>
</glyph>
<glyph name="uvowel-rohg.init" format="2">
	<advance width="696"/>
	<outline>
		<contour>
			<point x="-35" y="25" type="line"/>
			<point x="-16" y="13"/>
			<point x="40" y="0"/>
			<point x="71" y="0" type="curve" smooth="yes"/>
			<point x="149" y="0"/>
			<point x="210" y="44"/>
			<point x="231" y="99" type="curve"/>
			<point x="217" y="98" type="line"/>
			<point x="251" y="33"/>
			<point x="309" y="0"/>
			<point x="389" y="0" type="curve" smooth="yes"/>
			<point x="398" y="0" type="line" smooth="yes"/>
			<point x="551" y="0"/>
			<point x="616" y="83"/>
			<point x="616" y="275" type="curve" smooth="yes"/>
			<point x="616" y="343" type="line"/>
			<point x="467" y="343" type="line"/>
			<point x="467" y="280" type="line" smooth="yes"/>
			<point x="467" y="164"/>
			<point x="443" y="120"/>
			<point x="380" y="120" type="curve" smooth="yes"/>
			<point x="330" y="120"/>
			<point x="299" y="155"/>
			<point x="299" y="211" type="curve" smooth="yes"/>
			<point x="299" y="343" type="line"/>
			<point x="150" y="343" type="line"/>
			<point x="150" y="280" type="line" smooth="yes"/>
			<point x="150" y="173"/>
			<point x="114" y="120"/>
			<point x="41" y="120" type="curve" smooth="yes"/>
			<point x="-35" y="120" type="line"/>
		</contour>
	</outline>
	<anchor name="top" x="382" y="714"/>
</glyph>
<glyph name="wa-rohg.init" format="2">
	<advance width="517"/>
	<outline>
		<contour>
			<point x="-35" y="25" type="line"/>
			<point x="-13" y="12"/>
			<point x="38" y="0"/>
			<point x="71" y="0" type="curve" smooth="yes"/>
			<point x="264" y="0" type="line" smooth="yes"/>
			<point x="393" y="0"/>
			<point x="472" y="75"/>
			<point x="472" y="198" type="curve" smooth="yes"/>
			<point x="472" y="314"/>
			<point x="398" y="385"/>
			<point x="276" y="385" type="curve" smooth="yes"/>
			<point x="224" y="385" type="line"/>
			<point x="275" y="329" type="line"/>
			<point x="358" y="424" type="line" smooth="yes"/>
			<point x="406" y="479"/>
			<point x="427" y="526"/>
			<point x="427" y="575" type="curve" smooth="yes"/>
			<point x="427" y="663"/>
			<point x="360" y="724"/>
			<point x="268" y="724" type="curve" smooth="yes"/>
			<point x="174" y="724"/>
			<point x="105" y="660"/>
			<point x="105" y="575" type="curve" smooth="yes"/>
			<point x="105" y="502"/>
			<point x="156" y="449"/>
			<point x="236" y="435" type="curve"/>
			<point x="227" y="458" type="line"/>
			<point x="121" y="332" type="line"/>
			<point x="161" y="277" type="line"/>
			<point x="226" y="277" type="line" smooth="yes"/>
			<point x="291" y="277"/>
			<point x="323" y="251"/>
			<point x="323" y="199" type="curve" smooth="yes"/>
			<point x="323" y="147"/>
			<point x="291" y="120"/>
			<point x="231" y="120" type="curve" smooth="yes"/>
			<point x="-35" y="120" type="line"/>
		</contour>
		<contour>
			<point x="263" y="532" type="curve" smooth="yes"/>
			<point x="240" y="532"/>
			<point x="221" y="551"/>
			<point x="221" y="574" type="curve" smooth="yes"/>
			<point x="221" y="597"/>
			<point x="240" y="616"/>
			<point x="263" y="616" type="curve" smooth="yes"/>
			<point x="286" y="616"/>
			<point x="305" y="597"/>
			<point x="305" y="574" type="curve" smooth="yes"/>
			<point x="305" y="551"/>
			<point x="286" y="532"/>
		</contour>
	</outline>
	<anchor name="top" x="257" y="714"/>
</glyph>
<glyph name="xx.connection-rohg" format="2">
	<advance width="156"/>
	<outline>
		<contour>
			<point x="226" y="0" type="line"/>
			<point x="226" y="120" type="line"/>
			<point x="149" y="120" type="line" smooth="yes"/>
			<point x="82" y="120"/>
			<point x="35" y="160"/>
			<point x="35" y="219" type="curve"/>
			<point x="-40" y="219" type="line"/>
			<point x="-40" y="178" type="line" smooth="yes"/>
			<point x="-40" y="73"/>
			<point x="37" y="0"/>
			<point x="149" y="0" type="curve" smooth="yes"/>
		</contour>
	</outline>
</glyph>
<glyph name="xx.evowelmark-rohg" format="2">
	<advance width="294"/>
	<outline>
		<contour>
			<point x="284" y="-210" type="curve"/>
			<point x="284" y="-127" type="line"/>
			<point x="207" y="-127" type="line" smooth="yes"/>
			<point x="160" y="-127"/>
			<point x="139" y="-113"/>
			<point x="139" y="-83" type="curve" smooth="yes"/>
			<point x="139" y="-53" type="line"/>
			<point x="10" y="-53" type="line"/>
			<point x="10" y="-83" type="line" smooth="yes"/>
			<point x="10" y="-180"/>
			<point x="63" y="-225"/>
			<point x="175" y="-225" type="curve" smooth="yes"/>
			<point x="183" y="-225" type="line" smooth="yes"/>
			<point x="222" y="-225"/>
			<point x="256" y="-220"/>
		</contour>
	</outline>
</glyph>
<glyph name="xx.ivowelmark-rohg" format="2">
	<advance width="294"/>
	<outline>
		<contour>
			<point x="10" y="-210" type="line"/>
			<point x="38" y="-220"/>
			<point x="72" y="-225"/>
			<point x="111" y="-225" type="curve" smooth="yes"/>
			<point x="119" y="-225" type="line" smooth="yes"/>
			<point x="231" y="-225"/>
			<point x="284" y="-180"/>
			<point x="284" y="-83" type="curve" smooth="yes"/>
			<point x="284" y="-53" type="line"/>
			<point x="155" y="-53" type="line"/>
			<point x="155" y="-83" type="line" smooth="yes"/>
			<point x="155" y="-113"/>
			<point x="134" y="-127"/>
			<point x="87" y="-127" type="curve" smooth="yes"/>
			<point x="10" y="-127" type="line"/>
		</contour>
	</outline>
</glyph>
<glyph name="xx.singledot-rohg" format="2">
	<advance width="154"/>
	<outline>
		<contour>
			<point x="77" y="429" type="curve" smooth="yes"/>
			<point x="119" y="429"/>
			<point x="144" y="456"/>
			<point x="144" y="501" type="curve" smooth="yes"/>
			<point x="144" y="546"/>
			<point x="119" y="573"/>
			<point x="77" y="573" type="curve" smooth="yes"/>
			<point x="35" y="573"/>
			<point x="10" y="546"/>
			<point x="10" y="501" type="curve" smooth="yes"/>
			<point x="10" y="456"/>
			<point x="35" y="429"/>
		</contour>
	</outline>
</glyph>
<glyph name="xx.tripledot-rohg" format="2">
	<advance width="324"/>
	<outline>
		<contour>
			<point x="73" y="607" type="curve" smooth="yes"/>
			<point x="113" y="607"/>
			<point x="136" y="632"/>
			<point x="136" y="674" type="curve" smooth="yes"/>
			<point x="136" y="716"/>
			<point x="113" y="741"/>
			<point x="73" y="741" type="curve" smooth="yes"/>
			<point x="33" y="741"/>
			<point x="10" y="716"/>
			<point x="10" y="674" type="curve" smooth="yes"/>
			<point x="10" y="632"/>
			<point x="33" y="607"/>
		</contour>
		<contour>
			<point x="251" y="607" type="curve" smooth="yes"/>
			<point x="291" y="607"/>
			<point x="314" y="632"/>
			<point x="314" y="674" type="curve" smooth="yes"/>
			<point x="314" y="716"/>
			<point x="291" y="741"/>
			<point x="251" y="741" type="curve" smooth="yes"/>
			<point x="211" y="741"/>
			<point x="188" y="716"/>
			<point x="188" y="674" type="curve" smooth="yes"/>
			<point x="188" y="632"/>
			<point x="211" y="607"/>
		</contour>
		<contour>
			<point x="162" y="758" type="curve" smooth="yes"/>
			<point x="201" y="758"/>
			<point x="224" y="783"/>
			<point x="224" y="824" type="curve" smooth="yes"/>
			<point x="224" y="865"/>
			<point x="201" y="890"/>
			<point x="162" y="890" type="curve" smooth="yes"/>
			<point x="123" y="890"/>
			<point x="100" y="865"/>
			<point x="100" y="824" type="curve" smooth="yes"/>
			<point x="100" y="783"/>
			<point x="123" y="758"/>
		</contour>
	</outline>
</glyph>
<glyph name="ya-rohg.init" format="2">
	<advance width="536"/>
	<outline>
		<contour>
			<point x="-35" y="25" type="line"/>
			<point x="-13" y="12"/>
			<point x="38" y="0"/>
			<point x="71" y="0" type="curve" smooth="yes"/>
			<point x="154" y="0" type="line" smooth="yes"/>
			<point x="320" y="0"/>
			<point x="419" y="103"/>
			<point x="419" y="275" type="curve" smooth="yes"/>
			<point x="419" y="555" type="line" smooth="yes"/>
			<point x="419" y="658"/>
			<point x="352" y="724"/>
			<point x="248" y="724" type="curve" smooth="yes"/>
			<point x="146" y="724"/>
			<point x="76" y="661"/>
			<point x="76" y="571" type="curve" smooth="yes"/>
			<point x="76" y="480"/>
			<point x="146" y="421"/>
			<point x="253" y="421" type="curve" smooth="yes"/>
			<point x="526" y="421" type="line"/>
			<point x="526" y="541" type="line"/>
			<point x="345" y="541" type="line"/>
			<point x="335" y="526" type="line"/>
			<point x="255" y="526" type="line" smooth="yes"/>
			<point x="222" y="526"/>
			<point x="201" y="545"/>
			<point x="201" y="574" type="curve" smooth="yes"/>
			<point x="201" y="599"/>
			<point x="218" y="616"/>
			<point x="242" y="616" type="curve" smooth="yes"/>
			<point x="268" y="616"/>
			<point x="285" y="596"/>
			<point x="285" y="567" type="curve" smooth="yes"/>
			<point x="285" y="460" type="line"/>
			<point x="270" y="450" type="line"/>
			<point x="270" y="280" type="line" smooth="yes"/>
			<point x="270" y="174"/>
			<point x="220" y="120"/>
			<point x="120" y="120" type="curve" smooth="yes"/>
			<point x="-35" y="120" type="line"/>
		</contour>
	</outline>
	<anchor name="top" x="233" y="714"/>
</glyph>
<glyph name="za-rohg.init" format="2">
	<advance width="692"/>
	<outline>
		<contour>
			<point x="-35" y="25" type="line"/>
			<point x="-13" y="12"/>
			<point x="38" y="0"/>
			<point x="71" y="0" type="curve" smooth="yes"/>
			<point x="151" y="0" type="line" smooth="yes"/>
			<point x="365" y="0"/>
			<point x="478" y="95"/>
			<point x="478" y="275" type="curve" smooth="yes"/>
			<point x="478" y="555" type="line" smooth="yes"/>
			<point x="478" y="658"/>
			<point x="409" y="724"/>
			<point x="303" y="724" type="curve" smooth="yes"/>
			<point x="201" y="724"/>
			<point x="130" y="657"/>
			<point x="130" y="561" type="curve" smooth="yes"/>
			<point x="130" y="242" type="line" smooth="yes"/>
			<point x="130" y="102"/>
			<point x="249" y="0"/>
			<point x="414" y="0" type="curve" smooth="yes"/>
			<point x="455" y="0" type="line" smooth="yes"/>
			<point x="600" y="0"/>
			<point x="682" y="84"/>
			<point x="682" y="235" type="curve" smooth="yes"/>
			<point x="682" y="258" type="line"/>
			<point x="533" y="258" type="line"/>
			<point x="533" y="240" type="line" smooth="yes"/>
			<point x="533" y="161"/>
			<point x="506" y="120"/>
			<point x="455" y="120" type="curve" smooth="yes"/>
			<point x="410" y="120" type="line" smooth="yes"/>
			<point x="321" y="120"/>
			<point x="267" y="165"/>
			<point x="267" y="241" type="curve" smooth="yes"/>
			<point x="267" y="561" type="line" smooth="yes"/>
			<point x="267" y="591"/>
			<point x="277" y="604"/>
			<point x="298" y="604" type="curve" smooth="yes"/>
			<point x="319" y="604"/>
			<point x="329" y="591"/>
			<point x="329" y="561" type="curve" smooth="yes"/>
			<point x="329" y="280" type="line" smooth="yes"/>
			<point x="329" y="157"/>
			<point x="293" y="120"/>
			<point x="169" y="120" type="curve" smooth="yes"/>
			<point x="-35" y="120" type="line"/>
		</contour>
	</outline>
	<anchor name="top" x="304" y="714"/>
</glyph>
